<svg id="Layer_1" data-name="Layer 1" xmlns="http://www.w3.org/2000/svg" viewBox="0 0 186.34 45.22"><defs><style>.cls-1{isolation:isolate;}</style></defs><g class="cls-1"><g class="cls-1"><path d="M10.8,42.43c0,1.63-1.44,2.74-4.32,2.74-1.63,0-1.87-.19-1.87-1.63l.33-23.29V9.65a11.74,11.74,0,0,0-.57-4.42l.33-.34c4.47,1.2,6.49,1.92,7.21,2.45h23.9c2.11-2.35,2.69-2.78,3-2.78s1,.19,3.21,2.06S44.79,9,44.79,9.55c0,.43-.39.86-1.83,1.54v9L43.44,41c0,2.59-1.92,3.31-4.6,3.31-1.73,0-2.07-.19-2.07-1.63V39.84h-26ZM20.55,8.21h-8.4c-.15.28-.48.52-1.35.86V22.85h9.75Zm0,15.5H10.8V39h9.75Zm16.22-.86V8.21h-9c0,.57-.28.91-1.24,1.2V22.85ZM26.55,39H36.77V23.71H26.55Z" transform="translate(-4.37 -1.34)"/></g><g class="cls-1"><path d="M57.74,26c-.24,9.61-2.92,15.37-8.59,20l-.29-.19c2.84-5.42,3.65-10,3.65-21.22V17.18c0-2.73,0-4-.57-5.09l.28-.28c4.37,1.34,6,2,6.49,2.44h5.13c1.87-2.35,2.35-2.78,2.74-2.78s1,.19,2.83,1.73,2.21,2,2.21,2.54-.48,1-1.73,1.54v2.78l.29,6.82c0,1.73-1.54,2.54-4.27,2.54-1.25,0-1.49-.24-1.49-1.58V26ZM63.89,6.19c2.54-3.7,3-4.27,3.46-4.27s1,.33,2.68,1.82c2.07,1.78,2.4,2.16,2.4,2.59,0,.58-.28.72-1.1.72H59.71c-3.45,0-6.81.1-9.69.39l-.44-1.63c3.08.28,6.53.38,10.13.38Zm.53,19v-10H58.85c-.1.33-.43.53-1.06.81v9.22Zm14.49-6.72c0,8.64-1.58,14.74-4.75,19.2-2.88,4.13-7.2,7-12.58,8.74L61.25,46a25,25,0,0,0,9.36-10.51c1.87-4.18,2.74-9.5,2.74-16.66V8.59a9.44,9.44,0,0,0-.63-4.32l.39-.34A51.41,51.41,0,0,1,79.3,6.09,55.74,55.74,0,0,0,85.44,3a11.25,11.25,0,0,0,2.31-1.68h.57C93.08,4.51,93.89,5.23,93.89,6s-.38.82-1.39.82c-.38,0-.86,0-1.39-.1-3.31.48-7,.77-11,1a3.17,3.17,0,0,1-1.16.62v8.83H86.5c2.64-3.64,3.17-4,3.55-4s1,.24,2.79,1.83,2.2,2,2.2,2.4-.28.67-1.1.67H90.29c-.05.57-.38.91-1.29,1.29v7.3l.43,17.23c0,1.78-1.59,2.69-4.75,2.69-1.59,0-1.83-.29-1.78-1.73l.38-17.9V18H78.91Z" transform="translate(-4.37 -1.34)"/></g><g class="cls-1"><path d="M106,12.77a22.22,22.22,0,0,1,15.65-6.48,19,19,0,0,1,12,4A21.51,21.51,0,0,1,141.46,27c0,5-1.64,9-5.62,11.86s-10.08,4.51-19.25,4.9c-.34,0-.48-.15-.48-.29a.4.4,0,0,1,.38-.38c5.38-1.25,9.94-3.27,13.16-6A15.16,15.16,0,0,0,135,24.91a18.76,18.76,0,0,0-4.8-12.86,12.05,12.05,0,0,0-8.78-3.84A13.91,13.91,0,0,0,120,8.3a11,11,0,0,1,1.92,2.26,7.31,7.31,0,0,1,1.2,4.32,26,26,0,0,1-.53,4.13c-1.34,6.76-4.32,13.05-7,16.32-2.5,3.07-5.38,4.8-7.92,4.8-2.07,0-3.6-.53-4.47-3.41a15.81,15.81,0,0,0-1.48-3.5C100.36,31,99,29.28,99,26.64,99,21.41,102,16.61,106,12.77Zm-1.44,19.44a3,3,0,0,0,2.78,1.44c1.59,0,3.31-1.15,5.14-3.46a40,40,0,0,0,6.86-14.69,19,19,0,0,0,.53-3.41,6.75,6.75,0,0,0-.38-2.3,9.29,9.29,0,0,0-.67-1.3,17.48,17.48,0,0,0-9.56,6.44c-3.31,4.08-5.57,8.88-5.57,13.73A6.15,6.15,0,0,0,104.59,32.21Z" transform="translate(-4.37 -1.34)"/></g><g class="cls-1"><path d="M171.17,15.93a1.79,1.79,0,0,1-.34.53,26.78,26.78,0,0,0,4.56,10.23,38.7,38.7,0,0,0,4.28-5.91,12.2,12.2,0,0,0,1.48-3.21l.39-.2c5.47,3.7,6.05,4.08,6.05,5,0,.72-.77,1-2.4.91a58.46,58.46,0,0,1-8.6,4.89c3.6,4.09,8.5,6.77,14.12,9.17l-.05.48A10.5,10.5,0,0,0,186,42.19c-.43.67-.72,1.06-1.15,1.06a2.08,2.08,0,0,1-1-.39c-9-6.09-12.77-13.34-14.06-26-.1,0-.24.05-.39.05a30.74,30.74,0,0,1-5.18,4c6,3.89,9.21,9.51,9.21,14.69,0,4.23-.48,6.15-2,8.21a7,7,0,0,1-5.95,2.69c-1.2,0-1.35-.05-1.49-1-.34-2.16-1.25-3.41-4.37-4.56v-.53a36,36,0,0,0,6.1-.14c1.53-.19,2.3-1.39,2.3-4.9,0-.57,0-1.2-.05-1.82-5.9,5-12.62,7.73-22.08,9.22l-.19-.48c9.26-3.75,15.55-8.4,21-14.88a7.81,7.81,0,0,0-.34-.87c-4.51,3.89-10.66,6.72-20.07,8.21l-.14-.48c7.87-3.26,13.44-7.39,17.52-12.19l-.43-.58a49,49,0,0,1-16.95,5.38l-.19-.43c7.64-2.84,13.06-6.53,16.28-10.57-4,.05-7,.15-9.17.39l-.43-1.63c2.78.28,6.48.38,11.56.38h11.86c2.3-3.22,3-4.13,3.46-4.13s.67.1,2,1.11a27.32,27.32,0,0,0,.82-3.32H153.21a12.68,12.68,0,0,1,.15,2c0,3.75-2,5.81-4.61,5.81a2.81,2.81,0,0,1-2.88-3c0-1.54.77-2.31,2.11-3,2.35-1.29,3-3.26,2.88-5.66l.43-.1A7.8,7.8,0,0,1,153,7.87h12.1V5.61a8.86,8.86,0,0,0-.58-3.89l.34-.33c6.53.81,8.16,1.25,8.16,2.16,0,.53-.33.86-1.92,1.3v3h10.66c2.16-2.4,2.59-2.74,3-2.74s1.11.48,3,2.26c2.2,2,2.59,2.73,2.59,3.26,0,1.3-.48,1.54-3.7,1.54a31.29,31.29,0,0,1-3.12,1.54c1,1,1.2,1.29,1.2,1.63s-.24.57-1,.57Z" transform="translate(-4.37 -1.34)"/></g></g></svg>